Jim, Michelle, Stifler, and their friends reunite in East Great Falls, Michigan for their high school reunion. 

SOURCES:

VIDEO - RIPRG THANKS
AUDIO - RIPRG THANKS
SUBS - None Add

STATS:

Video
ID : 0
Format : MPEG-4 Visual
Format profile : Advanced Simple@L5
Format settings, BVOP : 2
Format settings, QPel : No
Format settings, GMC : No warppoints
Format settings, Matrix : Default (MPEG)
Muxing mode : Packed bitstream
Codec ID : XVID
Codec ID/Hint : XviD
Duration : 1h 44mn
Bit rate : 887 Kbps
Width : 720 pixels
Height : 368 pixels
Display aspect ratio : 1.957
Frame rate : 29.970 fps
Color space : YUV
Chroma subsampling : 4:2:0
Bit depth : 8 bits
Scan type : Progressive
Compression mode : Lossy
Bits/(Pixel*Frame) : 0.112
Stream size : 662 MiB (90%)
Writing library : XviD 64

Audio
ID : 1
Format : MPEG Audio
Format version : Version 1
Format profile : Layer 3
Mode : Joint stereo
Mode extension : MS Stereo
Codec ID : 55
Codec ID/Hint : MP3
Duration : 1h 44mn
Bit rate mode : Variable
Bit rate : 90.6 Kbps
Minimum bit rate : 32.0 Kbps
Channel(s) : 2 channels
Sampling rate : 32.0 KHz
Compression mode : Lossy
Stream size : 67.7 MiB (9%)
Alignment : Aligned on interleaves
Interleave, duration : 36 ms (1.08 video frame)
Interleave, preload duration : 464 ms
Writing library : LAME3.98r
Encoding settings : -m j -V 7 -q 2 -lowpass 14.5 --vbr-new -b 32


NOTES:

Simple re-encode of the RiPRG release ...done a few tweaks here and there.
Changing contrast,brightness,sharpness,rgb colours and also used a smoother...
Audio untouched.

Dam just grabbed this and whilst its nice audio ....just checked the sample and you cam here someone laugh,so pretty sure its cam audio.
Oh well outta here tonight so will see about syncing that line audio off ADTRG later.

